# Blender 3.3.1
# www.blender.org
mtllib SwordSlash.mtl
o Cube
v -0.019220 -0.148999 0.379739
v -0.019581 0.154388 0.383424
v -0.019220 -0.161236 0.112912
v -0.019581 0.162088 0.108469
v 0.019220 -0.148999 0.379739
v 0.019581 0.154388 0.383424
v 0.019220 -0.161236 0.112912
v 0.019581 0.162088 0.108469
v -0.017879 0.496373 0.177158
v -0.017879 0.420641 0.002733
v 0.017879 0.420641 0.002733
v 0.017879 0.496373 0.177158
v -0.017031 -0.407788 -0.059498
v -0.017031 -0.473134 0.133574
v 0.017031 -0.407788 -0.059498
v 0.017031 -0.473134 0.133574
v -0.010404 0.814860 -0.235995
v -0.010404 0.752989 -0.303616
v 0.010404 0.752989 -0.303616
v 0.010404 0.814861 -0.235995
v -0.012212 -0.616478 -0.437322
v -0.012212 -0.710661 -0.360550
v 0.012212 -0.616478 -0.437322
v 0.012212 -0.710661 -0.360550
v -0.005278 -0.779936 -0.818148
v -0.005278 -0.825474 -0.794136
v 0.005278 -0.779936 -0.818148
v 0.005278 -0.825474 -0.794136
v -0.005021 0.999391 -0.587163
v -0.005021 0.969084 -0.614347
v 0.005021 0.969084 -0.614347
v 0.005021 0.999391 -0.587163
v -0.026428 -0.155118 0.246325
v -0.019536 0.002555 0.408527
v -0.026924 0.158238 0.245947
v -0.019536 0.002157 0.125527
v -0.000000 -0.163530 0.062882
v -0.000000 0.163532 0.056915
v 0.019536 0.002157 0.125527
v 0.026428 -0.155118 0.246325
v 0.026924 0.158238 0.245947
v 0.019536 0.002555 0.408527
v -0.000000 -0.146705 0.429769
v 0.000000 0.152944 0.434979
v -0.024584 0.458507 0.089946
v 0.000000 0.406441 -0.029971
v 0.024584 0.458507 0.089946
v 0.000000 0.510573 0.209863
v 0.019368 0.290975 0.074313
v 0.019368 0.321925 0.308393
v -0.019368 0.321925 0.308393
v -0.019368 0.290975 0.074313
v -0.023417 -0.440461 0.037038
v 0.000000 -0.395535 -0.095699
v 0.023417 -0.440461 0.037038
v 0.000000 -0.485387 0.169775
v 0.018405 -0.313747 0.290435
v 0.018405 -0.295544 0.052955
v -0.018405 -0.313746 0.290435
v -0.018405 -0.295544 0.052955
v -0.014305 0.783925 -0.269805
v -0.000000 0.741388 -0.316295
v 0.014305 0.783925 -0.269805
v 0.000000 0.826461 -0.223316
v 0.014392 0.663917 -0.012456
v -0.014392 0.663917 -0.012456
v -0.014392 0.583260 -0.126910
v 0.014392 0.583260 -0.126910
v -0.016791 -0.663569 -0.398936
v 0.000000 -0.598818 -0.451717
v 0.016791 -0.663569 -0.398936
v -0.000000 -0.728321 -0.346156
v 0.015039 -0.605737 -0.091633
v 0.015039 -0.512723 -0.224890
v -0.015039 -0.512724 -0.224890
v -0.015039 -0.605737 -0.091633
v -0.005980 -0.812366 -0.837159
v 0.000000 -0.786568 -0.850762
v 0.005980 -0.812366 -0.837159
v -0.000000 -0.838163 -0.823557
v 0.008539 -0.788322 -0.628115
v 0.008539 -0.716042 -0.669616
v -0.008539 -0.716042 -0.669616
v -0.008539 -0.788322 -0.628115
v -0.005916 0.997444 -0.625683
v -0.000000 0.979592 -0.641696
v 0.005916 0.997445 -0.625683
v -0.000000 1.015297 -0.609670
v 0.007396 0.936165 -0.453167
v -0.007396 0.936165 -0.453167
v -0.007396 0.891640 -0.494620
v 0.007396 0.891640 -0.494620
v -0.026862 0.002356 0.267027
v -0.000000 0.002082 0.072464
v 0.026862 0.002356 0.267027
v 0.000000 0.002630 0.461589
v 0.025307 -0.304645 0.171695
v 0.026632 0.306450 0.191353
v 0.000000 0.679041 0.009005
v -0.026632 0.306450 0.191353
v 0.000000 0.327728 0.352283
v 0.000000 0.285172 0.030423
v 0.020679 -0.559230 -0.158262
v 0.000000 -0.317160 0.334962
v -0.000000 -0.292131 0.008428
v -0.025307 -0.304645 0.171695
v -0.000000 0.945704 -0.447953
v 0.000000 0.568137 -0.148371
v 0.019789 0.623589 -0.069683
v -0.019789 0.623589 -0.069683
v 0.011652 -0.753134 -0.651923
v -0.020679 -0.559230 -0.158262
v 0.000000 -0.623177 -0.066647
v 0.000000 -0.495284 -0.249876
v 0.000000 -0.832639 -0.902252
v -0.011652 -0.753134 -0.651923
v 0.000000 -0.802439 -0.623596
v -0.000000 -0.703830 -0.680250
v -0.000000 1.025161 -0.677997
v 0.000000 0.884706 -0.504749
v 0.010132 0.915205 -0.476351
v -0.010132 0.915205 -0.476351
vn -0.9985 -0.0109 0.0530
vn -0.9986 0.0075 0.0526
vn -0.9986 -0.0067 -0.0526
vn -0.9986 0.0032 -0.0529
vn -0.9356 0.0229 -0.3523
vn -0.9359 -0.0357 -0.3504
vn 0.9359 -0.0357 -0.3504
vn 0.9356 0.0229 -0.3523
vn 0.9986 0.0032 -0.0529
vn 0.9986 -0.0067 -0.0526
vn 0.9986 0.0075 0.0526
vn 0.9985 -0.0109 0.0530
vn 0.9331 -0.0720 0.3524
vn 0.9347 0.0598 0.3503
vn -0.9347 0.0598 0.3503
vn -0.9331 -0.0720 0.3524
vn 0.9983 0.0196 -0.0556
vn 0.9978 -0.0351 0.0554
vn 0.9969 -0.0602 0.0498
vn 0.9977 0.0404 -0.0537
vn 0.9981 0.0246 0.0562
vn 0.9983 -0.0163 -0.0565
vn 0.9978 -0.0253 -0.0616
vn 0.9972 0.0501 0.0551
vn -0.8713 0.3758 0.3156
vn 0.8713 0.3758 0.3156
vn 0.8550 0.4373 0.2787
vn -0.8550 0.4373 0.2787
vn -0.9983 -0.0163 -0.0565
vn -0.9981 0.0246 0.0562
vn -0.9972 0.0501 0.0551
vn -0.9978 -0.0253 -0.0616
vn -0.9152 0.1691 0.3658
vn 0.9152 0.1691 0.3658
vn 0.8902 0.2794 0.3599
vn -0.8902 0.2794 0.3599
vn 0.9236 -0.0895 -0.3728
vn -0.9236 -0.0895 -0.3728
vn -0.9009 -0.1979 -0.3864
vn 0.9009 -0.1979 -0.3864
vn 0.9974 0.0547 -0.0470
vn 0.9963 -0.0781 0.0355
vn 0.9962 -0.0845 0.0216
vn 0.9972 0.0609 -0.0428
vn 0.9112 -0.2001 0.3602
vn -0.9112 -0.2001 0.3602
vn -0.8876 -0.3248 0.3266
vn 0.8876 -0.3248 0.3266
vn -0.9185 0.1554 -0.3636
vn 0.9185 0.1554 -0.3636
vn 0.8881 0.3229 -0.3272
vn -0.8881 0.3229 -0.3272
vn -0.9978 -0.0351 0.0554
vn -0.9983 0.0196 -0.0556
vn -0.9977 0.0404 -0.0537
vn -0.9969 -0.0602 0.0498
vn -0.8355 0.4849 0.2583
vn 0.8355 0.4849 0.2583
vn 0.7969 0.5535 0.2422
vn -0.7969 0.5535 0.2422
vn 0.8839 -0.2781 -0.3761
vn -0.8839 -0.2781 -0.3761
vn -0.8668 -0.3484 -0.3568
vn 0.8668 -0.3484 -0.3568
vn 0.9964 0.0717 0.0447
vn 0.9973 -0.0329 -0.0658
vn 0.9968 -0.0463 -0.0656
vn 0.9959 0.0817 0.0378
vn -0.9973 -0.0329 -0.0658
vn -0.9964 0.0717 0.0447
vn -0.9959 0.0817 0.0378
vn -0.9968 -0.0463 -0.0656
vn 0.9971 0.0628 -0.0426
vn 0.9963 -0.0852 0.0105
vn 0.9966 -0.0825 -0.0027
vn 0.9973 0.0556 -0.0472
vn -0.9963 -0.0781 0.0355
vn -0.9974 0.0547 -0.0470
vn -0.9972 0.0609 -0.0428
vn -0.9962 -0.0845 0.0216
vn 0.8689 -0.4287 0.2474
vn -0.8689 -0.4287 0.2474
vn -0.8635 -0.4724 0.1765
vn 0.8635 -0.4724 0.1765
vn -0.8763 0.4031 -0.2637
vn 0.8763 0.4031 -0.2637
vn 0.8749 0.4307 -0.2215
vn -0.8749 0.4307 -0.2215
vn -0.9774 0.1460 -0.1528
vn 0.9774 0.1460 -0.1528
vn 0.9699 -0.2414 -0.0314
vn -0.9699 -0.2414 -0.0314
vn -0.9963 -0.0852 0.0105
vn -0.9971 0.0628 -0.0426
vn -0.9973 0.0556 -0.0472
vn -0.9966 -0.0825 -0.0027
vn 0.8638 -0.4869 0.1298
vn -0.8638 -0.4869 0.1298
vn -0.8450 -0.5258 0.0972
vn 0.8450 -0.5258 0.0972
vn -0.8755 0.4390 -0.2019
vn 0.8755 0.4390 -0.2019
vn 0.8641 0.4540 -0.2175
vn -0.8641 0.4540 -0.2175
vn 0.9694 -0.1411 -0.2008
vn -0.9694 -0.1411 -0.2008
vn -0.9564 0.2904 0.0295
vn 0.9564 0.2904 0.0295
vn 0.8486 -0.4214 -0.3198
vn -0.8486 -0.4214 -0.3198
vn -0.8274 -0.4626 -0.3183
vn 0.8274 -0.4626 -0.3183
vn 0.9955 0.0881 0.0357
vn 0.9961 -0.0632 -0.0609
vn 0.9962 -0.0615 -0.0609
vn 0.9954 0.0924 0.0243
vn -0.9961 -0.0632 -0.0609
vn -0.9955 0.0881 0.0357
vn -0.9954 0.0924 0.0243
vn -0.9962 -0.0615 -0.0609
vt 0.375000 1.000000
vt 0.375000 0.000000
vt 0.625000 0.000000
vt 0.625000 1.000000
vt 0.416667 0.250000
vt 0.583333 0.250000
vt 0.416667 0.750000
vt 0.583333 0.750000
vt 0.416667 0.500000
vt 0.583333 0.500000
vt 0.625000 1.000000
vt 0.625000 0.000000
vt 0.625000 0.250000
vt 0.625000 0.500000
vt 0.625000 0.750000
vt 0.375000 0.250000
vt 0.375000 0.000000
vt 0.375000 1.000000
vt 0.375000 0.500000
vt 0.375000 0.750000
vt 0.625000 1.000000
vt 0.625000 0.000000
vt 0.625000 0.250000
vt 0.625000 0.500000
vt 0.625000 0.750000
vt 0.375000 0.250000
vt 0.375000 0.000000
vt 0.375000 1.000000
vt 0.375000 0.500000
vt 0.375000 0.750000
vt 0.375000 0.250000
vt 0.375000 0.000000
vt 0.375000 1.000000
vt 0.375000 0.520833
vt 0.375000 0.729167
vt 0.625000 1.000000
vt 0.625000 0.000000
vt 0.625000 0.270833
vt 0.625000 0.479167
vt 0.625000 0.750000
vt 0.413194 0.125000
vt 0.500000 0.000000
vt 0.500000 1.000000
vt 0.586806 0.125000
vt 0.500000 0.250000
vt 0.416667 0.375000
vt 0.583333 0.375000
vt 0.500000 0.500000
vt 0.416667 0.625000
vt 0.583333 0.625000
vt 0.500000 0.750000
vt 0.413194 0.875000
vt 0.586806 0.875000
vt 0.625000 0.125000
vt 0.625000 0.375000
vt 0.625000 0.625000
vt 0.625000 0.875000
vt 0.619792 0.500000
vt 0.619792 0.750000
vt 0.625000 0.000000
vt 0.625000 1.000000
vt 0.619792 0.250000
vt 0.375000 0.125000
vt 0.375000 0.375000
vt 0.375000 0.625000
vt 0.375000 0.875000
vt 0.380208 0.750000
vt 0.380208 0.500000
vt 0.375000 1.000000
vt 0.375000 0.000000
vt 0.380208 0.250000
vt 0.625000 0.125000
vt 0.625000 0.375000
vt 0.625000 0.625000
vt 0.625000 0.875000
vt 0.625000 0.750000
vt 0.625000 1.000000
vt 0.625000 0.000000
vt 0.625000 0.250000
vt 0.625000 0.500000
vt 0.375000 0.125000
vt 0.375000 0.375000
vt 0.375000 0.625000
vt 0.375000 0.875000
vt 0.375000 0.750000
vt 0.375000 0.500000
vt 0.375000 0.250000
vt 0.375000 0.000000
vt 0.375000 1.000000
vt 0.375000 0.625000
vt 0.375000 0.125000
vt 0.375000 0.445988
vt 0.375000 0.625000
vt 0.375000 0.804012
vt 0.375000 0.746721
vt 0.375000 0.503279
vt 0.375000 0.251736
vt 0.375000 0.000000
vt 0.375000 1.000000
vt 0.625000 0.195988
vt 0.625000 0.375000
vt 0.625000 0.554012
vt 0.625000 0.875000
vt 0.625000 0.375000
vt 0.625000 0.748264
vt 0.625000 1.000000
vt 0.625000 0.000000
vt 0.625000 0.253279
vt 0.625000 0.496721
vt 0.500000 0.125000
vt 0.500000 0.375000
vt 0.500000 0.625000
vt 0.500000 0.875000
vt 0.380208 0.625000
vt 0.619792 0.625000
vt 0.625000 0.875000
vt 0.620660 0.125000
vt 0.620660 0.875000
vt 0.619792 0.375000
vt 0.375000 0.625000
vt 0.379340 0.875000
vt 0.380208 0.375000
vt 0.379340 0.125000
vt 0.625000 0.875000
vt 0.625000 0.375000
vt 0.625000 0.625000
vt 0.625000 0.125000
vt 0.375000 0.625000
vt 0.375000 0.125000
vt 0.375000 0.875000
vt 0.375000 0.375000
vt 0.375000 0.625000
vt 0.375000 0.125000
vt 0.375000 0.867670
vt 0.375000 0.382330
vt 0.625000 0.375000
vt 0.625000 0.375000
vt 0.625000 0.617670
vt 0.625000 0.132330
s 0
f 1/2/1 34/42/1 93/110/1 33/41/1
f 34/42/2 2/3/2 35/44/2 93/110/2
f 93/110/3 35/44/3 4/6/3 36/45/3
f 33/41/4 93/110/4 36/45/4 3/5/4
f 3/5/5 36/45/5 94/111/5 37/46/5
f 36/45/6 4/6/6 38/47/6 94/111/6
f 94/111/7 38/47/7 8/10/7 39/48/7
f 37/46/8 94/111/8 39/48/8 7/9/8
f 7/9/9 39/48/9 95/112/9 40/49/9
f 39/48/10 8/10/10 41/50/10 95/112/10
f 95/112/11 41/50/11 6/8/11 42/51/11
f 40/49/12 95/112/12 42/51/12 5/7/12
f 5/7/13 42/51/13 96/113/13 43/52/13
f 42/51/14 6/8/14 44/53/14 96/113/14
f 96/113/15 44/53/15 2/4/15 34/43/15
f 43/52/16 96/113/16 34/43/16 1/1/16
f 7/9/17 40/49/17 97/114/17 58/68/17
f 40/49/18 5/7/18 57/67/18 97/114/18
f 97/114/19 57/67/19 16/20/19 55/65/19
f 58/68/20 97/114/20 55/65/20 15/19/20
f 6/8/21 41/50/21 98/115/21 50/59/21
f 41/50/22 8/10/22 49/58/22 98/115/22
f 98/115/23 49/58/23 11/14/23 47/56/23
f 50/59/24 98/115/24 47/56/24 12/15/24
f 9/11/25 48/57/25 99/116/25 66/77/25
f 48/57/26 12/15/26 65/76/26 99/116/26
f 99/116/27 65/76/27 20/25/27 64/75/27
f 66/77/28 99/116/28 64/75/28 17/21/28
f 4/6/29 35/44/29 100/117/29 52/62/29
f 35/44/30 2/3/30 51/60/30 100/117/30
f 100/117/31 51/60/31 9/12/31 45/54/31
f 52/62/32 100/117/32 45/54/32 10/13/32
f 2/4/33 44/53/33 101/118/33 51/61/33
f 44/53/34 6/8/34 50/59/34 101/118/34
f 101/118/35 50/59/35 12/15/35 48/57/35
f 51/61/36 101/118/36 48/57/36 9/11/36
f 8/10/37 38/47/37 102/119/37 49/58/37
f 38/47/38 4/6/38 52/62/38 102/119/38
f 102/119/39 52/62/39 10/13/39 46/55/39
f 49/58/40 102/119/40 46/55/40 11/14/40
f 15/19/41 55/65/41 103/120/41 74/86/41
f 55/65/42 16/20/42 73/85/42 103/120/42
f 103/120/43 73/85/43 24/30/43 71/83/43
f 74/86/44 103/120/44 71/83/44 23/29/44
f 5/7/45 43/52/45 104/121/45 57/67/45
f 43/52/46 1/1/46 59/69/46 104/121/46
f 104/121/47 59/69/47 14/18/47 56/66/47
f 57/67/48 104/121/48 56/66/48 16/20/48
f 3/5/49 37/46/49 105/122/49 60/71/49
f 37/46/50 7/9/50 58/68/50 105/122/50
f 105/122/51 58/68/51 15/19/51 54/64/51
f 60/71/52 105/122/52 54/64/52 13/16/52
f 1/2/53 33/41/53 106/123/53 59/70/53
f 33/41/54 3/5/54 60/71/54 106/123/54
f 106/123/55 60/71/55 13/16/55 53/63/55
f 59/70/56 106/123/56 53/63/56 14/17/56
f 17/21/57 64/75/57 107/124/57 90/106/57
f 64/75/58 20/25/58 89/105/58 107/124/58
f 107/124/59 89/105/59 32/40/59 88/103/59
f 90/106/60 107/124/60 88/103/60 29/36/60
f 11/14/61 46/55/61 108/125/61 68/80/61
f 46/55/62 10/13/62 67/79/62 108/125/62
f 108/125/63 67/79/63 18/23/63 62/73/63
f 68/80/64 108/125/64 62/73/64 19/24/64
f 12/15/65 47/56/65 109/126/65 65/76/65
f 47/56/66 11/14/66 68/80/66 109/126/66
f 109/126/67 68/80/67 19/24/67 63/74/67
f 65/76/68 109/126/68 63/74/68 20/25/68
f 10/13/69 45/54/69 110/127/69 67/79/69
f 45/54/70 9/12/70 66/78/70 110/127/70
f 110/127/71 66/78/71 17/22/71 61/72/71
f 67/79/72 110/127/72 61/72/72 18/23/72
f 23/29/73 71/83/73 111/128/73 82/96/73
f 71/83/74 24/30/74 81/95/74 111/128/74
f 111/128/75 81/95/75 28/35/75 79/93/75
f 82/96/76 111/128/76 79/93/76 27/34/76
f 14/17/77 53/63/77 112/129/77 76/88/77
f 53/63/78 13/16/78 75/87/78 112/129/78
f 112/129/79 75/87/79 21/26/79 69/81/79
f 76/88/80 112/129/80 69/81/80 22/27/80
f 16/20/81 56/66/81 113/130/81 73/85/81
f 56/66/82 14/18/82 76/89/82 113/130/82
f 113/130/83 76/89/83 22/28/83 72/84/83
f 73/85/84 113/130/84 72/84/84 24/30/84
f 13/16/85 54/64/85 114/131/85 75/87/85
f 54/64/86 15/19/86 74/86/86 114/131/86
f 114/131/87 74/86/87 23/29/87 70/82/87
f 75/87/88 114/131/88 70/82/88 21/26/88
f 25/31/89 78/92/89 115/132/89 77/90/89
f 78/92/90 27/34/90 79/93/90 115/132/90
f 115/132/91 79/93/91 28/35/91 80/94/91
f 77/90/92 115/132/92 80/94/92 26/33/92
f 22/27/93 69/81/93 116/133/93 84/98/93
f 69/81/94 21/26/94 83/97/94 116/133/94
f 116/133/95 83/97/95 25/31/95 77/91/95
f 84/98/96 116/133/96 77/91/96 26/32/96
f 24/30/97 72/84/97 117/134/97 81/95/97
f 72/84/98 22/28/98 84/99/98 117/134/98
f 117/134/99 84/99/99 26/33/99 80/94/99
f 81/95/100 117/134/100 80/94/100 28/35/100
f 21/26/101 70/82/101 118/135/101 83/97/101
f 70/82/102 23/29/102 82/96/102 118/135/102
f 118/135/103 82/96/103 27/34/103 78/92/103
f 83/97/104 118/135/104 78/92/104 25/31/104
f 31/39/105 86/101/105 119/136/105 87/102/105
f 86/101/106 30/38/106 85/100/106 119/136/106
f 119/136/107 85/100/107 29/37/107 88/104/107
f 87/102/108 119/136/108 88/104/108 32/40/108
f 19/24/109 62/73/109 120/137/109 92/109/109
f 62/73/110 18/23/110 91/108/110 120/137/110
f 120/137/111 91/108/111 30/38/111 86/101/111
f 92/109/112 120/137/112 86/101/112 31/39/112
f 20/25/113 63/74/113 121/138/113 89/105/113
f 63/74/114 19/24/114 92/109/114 121/138/114
f 121/138/115 92/109/115 31/39/115 87/102/115
f 89/105/116 121/138/116 87/102/116 32/40/116
f 18/23/117 61/72/117 122/139/117 91/108/117
f 61/72/118 17/22/118 90/107/118 122/139/118
f 122/139/119 90/107/119 29/37/119 85/100/119
f 91/108/120 122/139/120 85/100/120 30/38/120
